<svg fill="none" height="100" viewBox="0 0 400 100" width="400" xmlns="http://www.w3.org/2000/svg"><path d="m0 0h400v100h-400z" fill="#191927" opacity=".05"/><path d="m308 8h84v84h-84z" fill="#5436da"/><path d="m216 8h84v84h-84z" fill="#21b5c2"/><path d="m332.879 45h1.207v-8.1769h2.756v-1.0106h-6.72v1.0106h2.757zm6.884.1575c1.43 0 2.572-.8663 2.795-2.0869h-1.05c-.21.6956-.787 1.2075-1.745 1.2075-1.326 0-1.877-.8925-1.877-1.9687v-.2232h4.738v-1.05c0-1.6406-.958-2.94-2.901-2.94-1.929 0-2.979 1.2338-2.979 3.0582v1.05c0 1.8375 1.234 2.9531 3.019 2.9531zm-1.877-3.9506v-.1707c0-1.1681.485-2.0606 1.837-2.0606 1.234 0 1.798.8269 1.798 1.9556v.2757zm6.466 3.7931h1.168v-3.9769c0-1.2731.775-1.9031 1.812-1.9031 1.128 0 1.601.7219 1.601 1.785v4.095h1.181v-4.2656c0-1.6275-.958-2.6382-2.454-2.6382-1.129 0-1.877.4988-2.192 1.2338v-1.0762h-1.116zm10.249.1575c1.601 0 2.782-.8925 2.782-2.1131 0-.9713-.59-1.4832-1.627-1.7325l-2.061-.4988c-.459-.105-.669-.3675-.669-.8006 0-.6825.617-1.05 1.496-1.05.958 0 1.496.5119 1.496 1.2731v.0525h1.05v-.0656c0-1.2731-1.076-2.1263-2.533-2.1263-1.509 0-2.598.6825-2.598 1.9819 0 .9056.564 1.4963 1.575 1.7194l1.995.4594c.511.1181.787.42.787.8662 0 .7875-.709 1.1681-1.68 1.1681-1.037 0-1.772-.4987-1.772-1.2862v-.0525h-1.063v.0787c0 1.3388 1.168 2.1263 2.822 2.1263zm7.144 0c1.93 0 3.045-1.3125 3.045-2.9925v-1.0763c0-1.6668-1.115-2.9925-3.045-2.9925-1.942 0-3.058 1.3257-3.058 2.9925v1.0763c0 1.68 1.116 2.9925 3.058 2.9925zm0-.9319c-1.26 0-1.916-.8531-1.916-2.0475v-1.1025c0-1.1812.656-2.0344 1.916-2.0344 1.247 0 1.904.8532 1.904 2.0344v1.1025c0 1.1944-.657 2.0475-1.904 2.0475zm4.769.7744h1.168v-3.2681c0-1.6144.774-2.4019 2.021-2.4019h.236v-1.1156h-.17c-1.169 0-1.917.5118-2.153 1.5356v-1.4962h-1.102zm-29.967 16.1838c1.982 0 3.465-1.0632 3.465-2.7563 0-1.1944-.774-1.9556-1.955-2.2706l-2.625-.6957c-.735-.1968-1.064-.6037-1.064-1.3125 0-1.0237.84-1.575 2.061-1.575 1.352 0 2.113.7219 2.113 1.7325v.1969h1.116v-.2231c0-1.575-1.313-2.6513-3.229-2.6513-1.929 0-3.229.9713-3.229 2.6119 0 1.1288.538 1.8769 1.877 2.2181l2.56.6694c.8.21 1.207.6956 1.207 1.3913 0 1.1025-.866 1.7193-2.284 1.7193-1.457 0-2.336-.7481-2.336-1.8375v-.21h-1.142v.2363c0 1.7063 1.457 2.7563 3.465 2.7563zm5.137-.1838h5.578v-.9319h-2.179v-7.3237h2.152v-.9319h-5.525v.9319h2.165v7.3237h-2.191zm7.645 0h1.141v-6.8644l2.35 4.6463h1.129l2.349-4.6463v6.8644h1.142v-9.1875h-1.116l-2.94 5.88-2.94-5.88h-1.115zm10.42 0h3.518c2.362 0 3.648-1.4963 3.648-3.5438v-2.1c0-2.0475-1.286-3.5437-3.648-3.5437h-3.518zm1.194-.9844v-7.2187h2.14c1.732 0 2.638 1.0237 2.638 2.5593v2.1c0 1.5357-.906 2.5594-2.638 2.5594z" fill="#fff"/><path d="m240.879 45h1.207v-8.1769h2.756v-1.0106h-6.72v1.0106h2.757zm6.884.1575c1.43 0 2.572-.8663 2.795-2.0869h-1.05c-.21.6956-.787 1.2075-1.745 1.2075-1.326 0-1.877-.8925-1.877-1.9687v-.2232h4.738v-1.05c0-1.6406-.958-2.94-2.901-2.94-1.929 0-2.979 1.2338-2.979 3.0582v1.05c0 1.8375 1.234 2.9531 3.019 2.9531zm-1.877-3.9506v-.1707c0-1.1681.485-2.0606 1.837-2.0606 1.234 0 1.798.8269 1.798 1.9556v.2757zm6.466 3.7931h1.168v-3.9769c0-1.2731.775-1.9031 1.812-1.9031 1.128 0 1.601.7219 1.601 1.785v4.095h1.181v-4.2656c0-1.6275-.958-2.6382-2.454-2.6382-1.129 0-1.877.4988-2.192 1.2338v-1.0762h-1.116zm10.249.1575c1.601 0 2.782-.8925 2.782-2.1131 0-.9713-.59-1.4832-1.627-1.7325l-2.061-.4988c-.459-.105-.669-.3675-.669-.8006 0-.6825.617-1.05 1.496-1.05.958 0 1.496.5119 1.496 1.2731v.0525h1.05v-.0656c0-1.2731-1.076-2.1263-2.533-2.1263-1.509 0-2.598.6825-2.598 1.9819 0 .9056.564 1.4963 1.575 1.7194l1.995.4594c.511.1181.787.42.787.8662 0 .7875-.709 1.1681-1.68 1.1681-1.037 0-1.772-.4987-1.772-1.2862v-.0525h-1.063v.0787c0 1.3388 1.168 2.1263 2.822 2.1263zm7.144 0c1.93 0 3.045-1.3125 3.045-2.9925v-1.0763c0-1.6668-1.115-2.9925-3.045-2.9925-1.942 0-3.058 1.3257-3.058 2.9925v1.0763c0 1.68 1.116 2.9925 3.058 2.9925zm0-.9319c-1.26 0-1.916-.8531-1.916-2.0475v-1.1025c0-1.1812.656-2.0344 1.916-2.0344 1.247 0 1.904.8532 1.904 2.0344v1.1025c0 1.1944-.657 2.0475-1.904 2.0475zm4.769.7744h1.168v-3.2681c0-1.6144.774-2.4019 2.021-2.4019h.236v-1.1156h-.17c-1.169 0-1.917.5118-2.153 1.5356v-1.4962h-1.102zm-29.967 16.1838c1.982 0 3.465-1.0632 3.465-2.7563 0-1.1944-.774-1.9556-1.955-2.2706l-2.625-.6957c-.735-.1968-1.064-.6037-1.064-1.3125 0-1.0237.84-1.575 2.061-1.575 1.352 0 2.113.7219 2.113 1.7325v.1969h1.116v-.2231c0-1.575-1.313-2.6513-3.229-2.6513-1.929 0-3.229.9713-3.229 2.6119 0 1.1288.538 1.8769 1.877 2.2181l2.56.6694c.8.21 1.207.6956 1.207 1.3913 0 1.1025-.866 1.7193-2.284 1.7193-1.457 0-2.336-.7481-2.336-1.8375v-.21h-1.142v.2363c0 1.7063 1.457 2.7563 3.465 2.7563zm5.137-.1838h5.578v-.9319h-2.179v-7.3237h2.152v-.9319h-5.525v.9319h2.165v7.3237h-2.191zm7.645 0h1.141v-6.8644l2.35 4.6463h1.129l2.349-4.6463v6.8644h1.142v-9.1875h-1.116l-2.94 5.88-2.94-5.88h-1.115zm10.42 0h3.518c2.362 0 3.648-1.4963 3.648-3.5438v-2.1c0-2.0475-1.286-3.5437-3.648-3.5437h-3.518zm1.194-.9844v-7.2187h2.14c1.732 0 2.638 1.0237 2.638 2.5593v2.1c0 1.5357-.906 2.5594-2.638 2.5594z" fill="#f3f3f4"/><path d="m8 77h176v15h-176z" fill="#ff5828"/><path d="m60.5969 88.5h1.3388l3.15-9.1875h-1.1944l-2.625 7.9669-2.6381-7.9669h-1.1944zm7.8367.1575c1.4306 0 2.5725-.8663 2.7956-2.0869h-1.05c-.21.6956-.7875 1.2075-1.7456 1.2075-1.3257 0-1.8769-.8925-1.8769-1.9687v-.2232h4.7381v-1.05c0-1.6406-.9581-2.94-2.9006-2.94-1.9294 0-2.9794 1.2338-2.9794 3.0582v1.05c0 1.8375 1.2338 2.9531 3.0188 2.9531zm-1.8769-3.9506v-.1707c0-1.1681.4856-2.0606 1.8375-2.0606 1.2337 0 1.7981.8269 1.7981 1.9556v.2757zm9.1834 3.9506c1.7194 0 2.8481-1.1156 2.9269-2.5594h-1.0632c-.1181.8531-.6562 1.6275-1.8506 1.6275-1.2994 0-1.9031-.84-1.9031-2.0212v-1.1419c0-1.1944.6037-2.0344 1.9031-2.0344 1.1944 0 1.7325.7744 1.8506 1.6275h1.0632c-.0788-1.4437-1.2075-2.5594-2.9269-2.5594-1.9163 0-3.045 1.2732-3.045 2.9794v1.1025c0 1.7063 1.1287 2.9794 3.045 2.9794zm6.9775-.1575h.9318v-.9581h-.6825c-.6956 0-.9187-.2625-.9187-.8925v-3.9375h1.6537v-.9581h-1.6537v-1.9163h-1.1813v1.9163h-1.1025v.9581h1.1025v3.9637c0 1.155.5513 1.8244 1.8507 1.8244zm5.2249.1575c1.9294 0 3.045-1.3125 3.045-2.9925v-1.0763c0-1.6668-1.1156-2.9925-3.045-2.9925-1.9425 0-3.0581 1.3257-3.0581 2.9925v1.0763c0 1.68 1.1156 2.9925 3.0581 2.9925zm0-.9319c-1.26 0-1.9162-.8531-1.9162-2.0475v-1.1025c0-1.1812.6562-2.0344 1.9162-2.0344 1.2469 0 1.9032.8532 1.9032 2.0344v1.1025c0 1.1944-.6563 2.0475-1.9032 2.0475zm4.7682.7744h1.1681v-3.2681c0-1.6144.7744-2.4019 2.0213-2.4019h.2362v-1.1156h-.1706c-1.1681 0-1.9162.5118-2.1525 1.5356v-1.4962h-1.1025zm10.9463.1838c1.982 0 3.465-1.0632 3.465-2.7563 0-1.1944-.774-1.9556-1.955-2.2706l-2.625-.6957c-.735-.1968-1.063-.6037-1.063-1.3125 0-1.0237.84-1.575 2.06-1.575 1.352 0 2.113.7219 2.113 1.7325v.1969h1.116v-.2231c0-1.575-1.313-2.6513-3.229-2.6513-1.929 0-3.229.9713-3.229 2.6119 0 1.1288.539 1.8769 1.877 2.2181l2.56.6694c.8.21 1.207.6956 1.207 1.3913 0 1.1025-.866 1.7193-2.284 1.7193-1.456 0-2.336-.7481-2.336-1.8375v-.21h-1.142v.2363c0 1.7063 1.457 2.7563 3.465 2.7563zm5.137-.1838h5.578v-.9319h-2.179v-7.3237h2.153v-.9319h-5.526v.9319h2.166v7.3237h-2.192zm7.645 0h1.142v-6.8644l2.349 4.6463h1.129l2.349-4.6463v6.8644h1.142v-9.1875h-1.116l-2.94 5.88-2.94-5.88h-1.115zm10.42 0h3.518c2.362 0 3.649-1.4963 3.649-3.5438v-2.1c0-2.0475-1.287-3.5437-3.649-3.5437h-3.518zm1.195-.9844v-7.2187h2.139c1.733 0 2.638 1.0237 2.638 2.5593v2.1c0 1.5357-.905 2.5594-2.638 2.5594z" fill="#fff"/><path d="m8 54h176v15h-176z" fill="#5436da"/><path d="m8 31h176v15h-176z" fill="#cae5f2"/><path d="m8 7.5h176v15h-176z" fill="#21b5c2"/><path d="m60.5969 65.5h1.3388l3.15-9.1875h-1.1944l-2.625 7.9669-2.6381-7.9669h-1.1944zm7.8367.1575c1.4306 0 2.5725-.8663 2.7956-2.0869h-1.05c-.21.6956-.7875 1.2075-1.7456 1.2075-1.3257 0-1.8769-.8925-1.8769-1.9687v-.2232h4.7381v-1.05c0-1.6406-.9581-2.94-2.9006-2.94-1.9294 0-2.9794 1.2338-2.9794 3.0582v1.05c0 1.8375 1.2338 2.9531 3.0188 2.9531zm-1.8769-3.9506v-.1707c0-1.1681.4856-2.0606 1.8375-2.0606 1.2337 0 1.7981.8269 1.7981 1.9556v.2757zm9.1834 3.9506c1.7194 0 2.8481-1.1156 2.9269-2.5594h-1.0632c-.1181.8531-.6562 1.6275-1.8506 1.6275-1.2994 0-1.9031-.84-1.9031-2.0212v-1.1419c0-1.1944.6037-2.0344 1.9031-2.0344 1.1944 0 1.7325.7744 1.8506 1.6275h1.0632c-.0788-1.4437-1.2075-2.5594-2.9269-2.5594-1.9163 0-3.045 1.2732-3.045 2.9794v1.1025c0 1.7063 1.1287 2.9794 3.045 2.9794zm6.9775-.1575h.9318v-.9581h-.6825c-.6956 0-.9187-.2625-.9187-.8925v-3.9375h1.6537v-.9581h-1.6537v-1.9163h-1.1813v1.9163h-1.1025v.9581h1.1025v3.9637c0 1.155.5513 1.8244 1.8507 1.8244zm5.2249.1575c1.9294 0 3.045-1.3125 3.045-2.9925v-1.0763c0-1.6668-1.1156-2.9925-3.045-2.9925-1.9425 0-3.0581 1.3257-3.0581 2.9925v1.0763c0 1.68 1.1156 2.9925 3.0581 2.9925zm0-.9319c-1.26 0-1.9162-.8531-1.9162-2.0475v-1.1025c0-1.1812.6562-2.0344 1.9162-2.0344 1.2469 0 1.9032.8532 1.9032 2.0344v1.1025c0 1.1944-.6563 2.0475-1.9032 2.0475zm4.7682.7744h1.1681v-3.2681c0-1.6144.7744-2.4019 2.0213-2.4019h.2362v-1.1156h-.1706c-1.1681 0-1.9162.5118-2.1525 1.5356v-1.4962h-1.1025zm10.9463.1838c1.982 0 3.465-1.0632 3.465-2.7563 0-1.1944-.774-1.9556-1.955-2.2706l-2.625-.6957c-.735-.1968-1.063-.6037-1.063-1.3125 0-1.0237.84-1.575 2.06-1.575 1.352 0 2.113.7219 2.113 1.7325v.1969h1.116v-.2231c0-1.575-1.313-2.6513-3.229-2.6513-1.929 0-3.229.9713-3.229 2.6119 0 1.1288.539 1.8769 1.877 2.2181l2.56.6694c.8.21 1.207.6956 1.207 1.3913 0 1.1025-.866 1.7193-2.284 1.7193-1.456 0-2.336-.7481-2.336-1.8375v-.21h-1.142v.2363c0 1.7063 1.457 2.7563 3.465 2.7563zm5.137-.1838h5.578v-.9319h-2.179v-7.3237h2.153v-.9319h-5.526v.9319h2.166v7.3237h-2.192zm7.645 0h1.142v-6.8644l2.349 4.6463h1.129l2.349-4.6463v6.8644h1.142v-9.1875h-1.116l-2.94 5.88-2.94-5.88h-1.115zm10.42 0h3.518c2.362 0 3.649-1.4963 3.649-3.5438v-2.1c0-2.0475-1.287-3.5437-3.649-3.5437h-3.518zm1.195-.9844v-7.2187h2.139c1.733 0 2.638 1.0237 2.638 2.5593v2.1c0 1.5357-.905 2.5594-2.638 2.5594z" fill="#fff"/><path d="m60.5969 42.5h1.3388l3.15-9.1875h-1.1944l-2.625 7.9669-2.6381-7.9669h-1.1944zm7.8367.1575c1.4306 0 2.5725-.8663 2.7956-2.0869h-1.05c-.21.6956-.7875 1.2075-1.7456 1.2075-1.3257 0-1.8769-.8925-1.8769-1.9687v-.2232h4.7381v-1.05c0-1.6406-.9581-2.94-2.9006-2.94-1.9294 0-2.9794 1.2338-2.9794 3.0582v1.05c0 1.8375 1.2338 2.9531 3.0188 2.9531zm-1.8769-3.9506v-.1707c0-1.1681.4856-2.0606 1.8375-2.0606 1.2337 0 1.7981.8269 1.7981 1.9556v.2757zm9.1834 3.9506c1.7194 0 2.8481-1.1156 2.9269-2.5594h-1.0632c-.1181.8531-.6562 1.6275-1.8506 1.6275-1.2994 0-1.9031-.84-1.9031-2.0212v-1.1419c0-1.1944.6037-2.0344 1.9031-2.0344 1.1944 0 1.7325.7744 1.8506 1.6275h1.0632c-.0788-1.4437-1.2075-2.5594-2.9269-2.5594-1.9163 0-3.045 1.2732-3.045 2.9794v1.1025c0 1.7063 1.1287 2.9794 3.045 2.9794zm6.9775-.1575h.9318v-.9581h-.6825c-.6956 0-.9187-.2625-.9187-.8925v-3.9375h1.6537v-.9581h-1.6537v-1.9163h-1.1813v1.9163h-1.1025v.9581h1.1025v3.9637c0 1.155.5513 1.8244 1.8507 1.8244zm5.2249.1575c1.9294 0 3.045-1.3125 3.045-2.9925v-1.0763c0-1.6668-1.1156-2.9925-3.045-2.9925-1.9425 0-3.0581 1.3257-3.0581 2.9925v1.0763c0 1.68 1.1156 2.9925 3.0581 2.9925zm0-.9319c-1.26 0-1.9162-.8531-1.9162-2.0475v-1.1025c0-1.1812.6562-2.0344 1.9162-2.0344 1.2469 0 1.9032.8532 1.9032 2.0344v1.1025c0 1.1944-.6563 2.0475-1.9032 2.0475zm4.7682.7744h1.1681v-3.2681c0-1.6144.7744-2.4019 2.0213-2.4019h.2362v-1.1156h-.1706c-1.1681 0-1.9162.5118-2.1525 1.5356v-1.4962h-1.1025zm10.9463.1838c1.982 0 3.465-1.0632 3.465-2.7563 0-1.1944-.774-1.9556-1.955-2.2706l-2.625-.6957c-.735-.1968-1.063-.6037-1.063-1.3125 0-1.0237.84-1.575 2.06-1.575 1.352 0 2.113.7219 2.113 1.7325v.1969h1.116v-.2231c0-1.575-1.313-2.6513-3.229-2.6513-1.929 0-3.229.9713-3.229 2.6119 0 1.1288.539 1.8769 1.877 2.2181l2.56.6694c.8.21 1.207.6956 1.207 1.3913 0 1.1025-.866 1.7193-2.284 1.7193-1.456 0-2.336-.7481-2.336-1.8375v-.21h-1.142v.2363c0 1.7063 1.457 2.7563 3.465 2.7563zm5.137-.1838h5.578v-.9319h-2.179v-7.3237h2.153v-.9319h-5.526v.9319h2.166v7.3237h-2.192zm7.645 0h1.142v-6.8644l2.349 4.6463h1.129l2.349-4.6463v6.8644h1.142v-9.1875h-1.116l-2.94 5.88-2.94-5.88h-1.115zm10.42 0h3.518c2.362 0 3.649-1.4963 3.649-3.5438v-2.1c0-2.0475-1.287-3.5437-3.649-3.5437h-3.518zm1.195-.9844v-7.2187h2.139c1.733 0 2.638 1.0237 2.638 2.5593v2.1c0 1.5357-.905 2.5594-2.638 2.5594z" fill="#191927"/><path d="m60.5969 19h1.3388l3.15-9.1875h-1.1944l-2.625 7.9669-2.6381-7.9669h-1.1944zm7.8367.1575c1.4306 0 2.5725-.8663 2.7956-2.0869h-1.05c-.21.6956-.7875 1.2075-1.7456 1.2075-1.3257 0-1.8769-.8925-1.8769-1.9687v-.2232h4.7381v-1.05c0-1.6406-.9581-2.94-2.9006-2.94-1.9294 0-2.9794 1.2338-2.9794 3.0582v1.05c0 1.8375 1.2338 2.9531 3.0188 2.9531zm-1.8769-3.9506v-.1707c0-1.1681.4856-2.0606 1.8375-2.0606 1.2337 0 1.7981.8269 1.7981 1.9556v.2757zm9.1834 3.9506c1.7194 0 2.8481-1.1156 2.9269-2.5594h-1.0632c-.1181.8531-.6562 1.6275-1.8506 1.6275-1.2994 0-1.9031-.84-1.9031-2.0212v-1.1419c0-1.1944.6037-2.0344 1.9031-2.0344 1.1944 0 1.7325.7744 1.8506 1.6275h1.0632c-.0788-1.4437-1.2075-2.5594-2.9269-2.5594-1.9163 0-3.045 1.2732-3.045 2.9794v1.1025c0 1.7063 1.1287 2.9794 3.045 2.9794zm6.9775-.1575h.9318v-.9581h-.6825c-.6956 0-.9187-.2625-.9187-.8925v-3.9375h1.6537v-.9581h-1.6537v-1.9163h-1.1813v1.9163h-1.1025v.9581h1.1025v3.9637c0 1.155.5513 1.8244 1.8507 1.8244zm5.2249.1575c1.9294 0 3.045-1.3125 3.045-2.9925v-1.0763c0-1.6668-1.1156-2.9925-3.045-2.9925-1.9425 0-3.0581 1.3257-3.0581 2.9925v1.0763c0 1.68 1.1156 2.9925 3.0581 2.9925zm0-.9319c-1.26 0-1.9162-.8531-1.9162-2.0475v-1.1025c0-1.1812.6562-2.0344 1.9162-2.0344 1.2469 0 1.9032.8532 1.9032 2.0344v1.1025c0 1.1944-.6563 2.0475-1.9032 2.0475zm4.7682.7744h1.1681v-3.2681c0-1.6144.7744-2.4019 2.0213-2.4019h.2362v-1.1156h-.1706c-1.1681 0-1.9162.5118-2.1525 1.5356v-1.4962h-1.1025zm10.9463.1838c1.982 0 3.465-1.0632 3.465-2.7563 0-1.1944-.774-1.9556-1.955-2.2706l-2.625-.6957c-.735-.1968-1.063-.6037-1.063-1.3125 0-1.0237.84-1.575 2.06-1.575 1.352 0 2.113.7219 2.113 1.7325v.1969h1.116v-.2231c0-1.575-1.313-2.65125-3.229-2.65125-1.929 0-3.229.97125-3.229 2.61185 0 1.1288.539 1.8769 1.877 2.2181l2.56.6694c.8.21 1.207.6956 1.207 1.3913 0 1.1025-.866 1.7193-2.284 1.7193-1.456 0-2.336-.7481-2.336-1.8375v-.21h-1.142v.2363c0 1.7063 1.457 2.7563 3.465 2.7563zm5.137-.1838h5.578v-.9319h-2.179v-7.3237h2.153v-.9319h-5.526v.9319h2.166v7.3237h-2.192zm7.645 0h1.142v-6.8644l2.349 4.6463h1.129l2.349-4.6463v6.8644h1.142v-9.1875h-1.116l-2.94 5.88-2.94-5.88h-1.115zm10.42 0h3.518c2.362 0 3.649-1.4963 3.649-3.5438v-2.1c0-2.0475-1.287-3.5437-3.649-3.5437h-3.518zm1.195-.9844v-7.2187h2.139c1.733 0 2.638 1.0237 2.638 2.5593v2.1c0 1.5357-.905 2.5594-2.638 2.5594z" fill="#f3f3f4"/></svg>